<svg width="58" height="50" viewBox="0 0 58 50" fill="none" xmlns="http://www.w3.org/2000/svg"><g clip-path="url(#a)"><path d="M51.207 14.814a8 8 0 0 0-.357-.357c-.122-.114-.236-.243-.357-.357-.122-.114-.236-.243-.357-.357-.122-.114-.236-.243-.358-.357-.12-.115-.235-.243-.357-.357-.121-.115-.235-.243-.357-.358-.121-.114-.236-.242-.357-.357a18.9 18.9 0 0 1 5.65 13.186c0 11.836-12.014 21.464-26.786 21.464-8.271 0-15.671-3.021-20.592-7.757l.357.357.357.357.357.358.357.357.357.357.357.357.358.357c4.914 4.936 12.478 8.114 20.95 8.114 14.77 0 26.785-9.628 26.785-21.428 0-5.043-2.171-9.822-6.007-13.579" fill="#000"/><path d="M52.571 25.5c0 10.864-11.193 19.671-25 19.671s-25-8.807-25-19.671c0-6.736 4.286-12.686 10.872-16.214 6.585-3.529 10.685-7.143 14.128-7.143s6.386 2.95 14.129 7.143c6.586 3.528 10.87 9.478 10.87 16.214" fill="#FBF0DF"/><path d="M52.571 25.5A15.5 15.5 0 0 0 52 21.371C50.05 45.157 21.036 46.3 9.628 39.186a28.57 28.57 0 0 0 17.943 5.985c13.786 0 25-8.821 25-19.671" fill="#F6DECE"/><path d="M17.95 7.979c3.193-1.915 7.436-5.508 11.607-5.515a6.6 6.6 0 0 0-1.986-.321c-1.728 0-3.571.893-5.893 2.236-.807.471-1.642.992-2.528 1.535-1.664 1.029-3.572 2.193-5.714 3.357C6.636 12.95 2.57 19.014 2.57 25.5v.85C6.9 11.057 14.764 9.893 17.95 7.979" fill="#FFFEFC"/><path fill-rule="evenodd" clip-rule="evenodd" d="M25.514 3.95a11.72 11.72 0 0 1-4.021 8.907c-.2.179-.043.522.214.422 2.407-.936 5.657-3.736 4.286-9.386-.057-.322-.479-.236-.479.057m1.622 0a11.6 11.6 0 0 1 1.15 9.621c-.086.25.22.465.392.258 1.565-2 2.929-5.972-1.157-10.258-.207-.185-.528.1-.386.35zm1.97-.121a11.73 11.73 0 0 1 4.894 8.4.235.235 0 0 0 .366.223.24.24 0 0 0 .098-.145c.657-2.493.286-6.743-5.121-8.95-.286-.114-.472.272-.236.443zm-13.185 7.428A12.1 12.1 0 0 0 23.4 4.83c.128-.258.536-.158.471.128-1.235 5.714-5.371 6.907-7.943 6.75-.271.007-.264-.371-.007-.45" fill="#CCBEA7"/><path d="M27.571 46.964C12.8 46.964.786 37.336.786 25.5c0-7.143 4.414-13.807 11.807-17.8 2.143-1.143 3.978-2.293 5.614-3.3.9-.557 1.75-1.079 2.572-1.564C23.286 1.35 25.429.357 27.57.357c2.143 0 4.015.857 6.357 2.243.715.407 1.43.85 2.193 1.336 1.779 1.1 3.786 2.343 6.429 3.764 7.393 3.993 11.807 10.65 11.807 17.8 0 11.836-12.014 21.464-26.786 21.464m0-44.821c-1.728 0-3.571.893-5.893 2.236-.807.471-1.642.992-2.528 1.535-1.664 1.029-3.571 2.193-5.714 3.357C6.636 12.95 2.57 19.014 2.57 25.5c0 10.85 11.215 19.679 25 19.679s25-8.829 25-19.679c0-6.486-4.064-12.55-10.871-16.214-2.7-1.429-4.807-2.772-6.514-3.829-.779-.478-1.493-.921-2.143-1.314-2.165-1.286-3.743-2-5.472-2" fill="#000"/><path d="M32.607 30.714a6.38 6.38 0 0 1-2.086 3.365 4.86 4.86 0 0 1-2.857 1.342 4.9 4.9 0 0 1-2.95-1.342 6.38 6.38 0 0 1-2.057-3.365.513.513 0 0 1 .571-.578h8.815a.515.515 0 0 1 .564.578" fill="#B71422"/><path d="M24.714 34.136c.8.77 1.837 1.249 2.943 1.357a4.94 4.94 0 0 0 2.936-1.357 8 8 0 0 0 .714-.765 4.88 4.88 0 0 0-3.5-1.65 4.4 4.4 0 0 0-3.571 1.986c.164.15.307.293.478.429" fill="#FF6164"/><path d="M24.828 33.571a3.83 3.83 0 0 1 2.993-1.485 4.3 4.3 0 0 1 2.857 1.207q.247-.27.472-.55a5 5 0 0 0-3.364-1.379 4.54 4.54 0 0 0-3.493 1.686q.254.276.535.521" fill="#000"/><path d="M27.636 35.85a5.3 5.3 0 0 1-3.18-1.429 6.8 6.8 0 0 1-2.22-3.607.86.86 0 0 1 .185-.714 1 1 0 0 1 .807-.364h8.815a1.03 1.03 0 0 1 .807.364.85.85 0 0 1 .178.714 6.8 6.8 0 0 1-2.221 3.607 5.3 5.3 0 0 1-3.171 1.429m-4.408-5.286c-.114 0-.143.05-.15.065a5.92 5.92 0 0 0 1.95 3.121A4.45 4.45 0 0 0 27.636 35a4.5 4.5 0 0 0 2.607-1.236 5.93 5.93 0 0 0 1.942-3.121.15.15 0 0 0-.142-.064z" fill="#000"/><path d="M38.443 31.157c2.308 0 4.178-1.1 4.178-2.457s-1.87-2.457-4.178-2.457-4.179 1.1-4.179 2.457 1.871 2.457 4.179 2.457m-21.622 0c2.308 0 4.179-1.1 4.179-2.457s-1.87-2.457-4.179-2.457c-2.307 0-4.178 1.1-4.178 2.457s1.87 2.457 4.178 2.457" fill="#FEBBD0"/><path fill-rule="evenodd" clip-rule="evenodd" d="M18.786 27.714a3.936 3.936 0 1 0 .014-7.872 3.936 3.936 0 0 0-.014 7.872m17.693 0a3.936 3.936 0 1 0-3.907-3.935 3.93 3.93 0 0 0 3.907 3.935" fill="#000"/><path fill-rule="evenodd" clip-rule="evenodd" d="M17.571 24.029a1.479 1.479 0 1 0 .014-2.958 1.479 1.479 0 0 0-.014 2.958m17.693 0a1.479 1.479 0 1 0-.014 0z" fill="#fff"/></g><defs><clipPath id="a"><path fill="#fff" d="M.428 0h57.143v50H.428z"/></clipPath></defs></svg>