<svg width="58" height="50" viewBox="0 0 58 50" fill="none" xmlns="http://www.w3.org/2000/svg"><g clip-path="url(#a)"><path d="M15.987 41.612h-.535l-2.669-2.67v-.534l4.08-4.08h2.828l.377.377v2.827zm-3.204-30.19v-.535l2.67-2.669h.534l4.08 4.08v2.828l-.377.377h-2.827z" fill="#05BDBA"/><path d="M36.28 33.008h-3.883l-.325-.324v-9.09c0-1.618-.635-2.871-2.586-2.915-1.003-.026-2.152 0-3.379.048l-.184.189V32.68l-.324.324h-3.884l-.324-.324V17.15l.324-.324h8.74a6.15 6.15 0 0 1 6.15 6.15v9.708z" fill="#014847"/><path d="M16.54 27.188H1.005l-.325-.325v-3.892l.325-.324h15.533l.324.324v3.892zm40.454 0H41.461l-.325-.325v-3.892l.325-.324h15.533l.325.324v3.892zM26.76 11.974V.324L27.084 0h3.893l.324.324v11.65l-.324.325h-3.893zm0 37.536V37.86l.324-.324h3.893l.324.324v11.65l-.324.325h-3.893z" fill="#05BDBA"/></g><defs><clipPath id="a"><path fill="#fff" d="M.681 0h56.637v50H.681z"/></clipPath></defs></svg>