<svg width="44" height="50" viewBox="0 0 44 50" fill="none" xmlns="http://www.w3.org/2000/svg"><g clip-path="url(#a)"><path d="M23.186.313a2.4 2.4 0 0 0-2.371 0L1.245 11.61C.5 12.028.081 12.818.081 13.655v22.638c0 .837.465 1.627 1.162 2.046l19.57 11.295a2.4 2.4 0 0 0 2.372 0l19.57-11.295c.744-.419 1.162-1.21 1.162-2.046V13.655a2.42 2.42 0 0 0-1.162-2.045z" fill="url(#b)"/><mask id="c" style="mask-type:luminance" maskUnits="userSpaceOnUse" x="0" y="-1" width="44" height="51"><path d="M23.186.313a2.4 2.4 0 0 0-2.371 0L1.245 11.61C.5 12.028.081 12.818.081 13.655v22.638c0 .837.465 1.627 1.162 2.046l19.57 11.295a2.4 2.4 0 0 0 2.372 0l19.57-11.295c.744-.419 1.162-1.21 1.162-2.046V13.655a2.42 2.42 0 0 0-1.162-2.045z" fill="#fff"/></mask><g mask="url(#c)"><path d="M42.802 11.61 23.14.314a3.3 3.3 0 0 0-.605-.232L.5 37.827c.186.233.419.419.651.558l19.664 11.296a2.26 2.26 0 0 0 1.813.233l20.685-37.84c-.14-.185-.325-.325-.511-.464" fill="url(#d)"/></g><mask id="e" style="mask-type:luminance" maskUnits="userSpaceOnUse" x="0" y="-1" width="44" height="51"><path d="M23.186.313a2.4 2.4 0 0 0-2.371 0L1.245 11.61C.5 12.028.081 12.818.081 13.655v22.638c0 .837.465 1.627 1.162 2.046l19.57 11.295a2.4 2.4 0 0 0 2.372 0l19.57-11.295c.744-.419 1.162-1.21 1.162-2.046V13.655a2.42 2.42 0 0 0-1.162-2.045z" fill="#fff"/></mask><g mask="url(#e)"><path d="M42.849 38.339a2.64 2.64 0 0 0 1.162-1.488L22.44.035c-.557-.093-1.162-.047-1.673.279L1.244 11.564 22.302 49.96c.279-.046.605-.14.883-.279z" fill="url(#f)"/></g></g><defs><linearGradient id="b" x1="2989.15" y1="873.449" x2="844.003" y2="4244.01" gradientUnits="userSpaceOnUse"><stop stop-color="#41873F"/><stop offset=".329" stop-color="#418B3D"/><stop offset=".635" stop-color="#419637"/><stop offset=".932" stop-color="#3FA92D"/><stop offset="1" stop-color="#3FAE2A"/></linearGradient><linearGradient id="d" x1="1853.31" y1="2754.49" x2="7225.51" y2="-164.238" gradientUnits="userSpaceOnUse"><stop offset=".138" stop-color="#41873F"/><stop offset=".403" stop-color="#54A044"/><stop offset=".714" stop-color="#66B848"/><stop offset=".908" stop-color="#6CC04A"/></linearGradient><linearGradient id="f" x1="-186.459" y1="2498.23" x2="4342.01" y2="2498.23" gradientUnits="userSpaceOnUse"><stop offset=".092" stop-color="#6CC04A"/><stop offset=".286" stop-color="#66B848"/><stop offset=".597" stop-color="#54A044"/><stop offset=".862" stop-color="#41873F"/></linearGradient><clipPath id="a"><path fill="#fff" d="M.082 0h43.836v50H.082z"/></clipPath></defs></svg>