<svg width="114" height="50" viewBox="0 0 114 50" fill="none" xmlns="http://www.w3.org/2000/svg"><g clip-path="url(#a)"><path d="M43.513 24.561c-1.491 0-2.697.439-3.64 1.338-.943.877-1.404 2.04-1.404 3.465a5.1 5.1 0 0 0 1.426 3.728c.482.526 1.447 1.228 2.894 2.127 1.755 1.097 2.94 1.974 3.51 2.632.547.702.81 1.403.81 2.17 0 .988-.328 1.8-1.008 2.413a3.95 3.95 0 0 1-2.72.877 4.407 4.407 0 0 1-4.451-4.561h-.548v5.022h.548c.175-.483.395-.724.702-.724.153 0 .504.088 1.03.285 1.316.46 2.39.702 3.224.702a5.04 5.04 0 0 0 3.728-1.535 5.087 5.087 0 0 0 .526-6.754c-.657-.878-1.973-1.886-3.947-3.07a13 13 0 0 1-3.29-2.479c-.504-.657-.767-1.337-.767-2.127 0-.833.329-1.535.921-2.017.614-.505 1.425-.768 2.412-.768 1.14 0 2.084.329 2.83 1.009.723.658 1.162 1.623 1.293 2.807h.548v-4.32h-.504a1.3 1.3 0 0 1-.175.438c-.066.066-.154.088-.307.088a3.7 3.7 0 0 1-.944-.22 8.5 8.5 0 0 0-2.697-.504zm18.07 0a9.78 9.78 0 0 0-8.552 4.869 9.54 9.54 0 0 0 .987 11.009c1.535 1.798 3.355 2.916 5.482 3.355.46.241 1.162.899 2.061 1.974 1.031 1.162 1.886 2.039 2.61 2.543a7.8 7.8 0 0 0 4.89 1.47c1.163 0 2.193-.198 3.07-.592l-.197-.505a4.41 4.41 0 0 1-4.1-.504c-.79-.548-1.82-1.557-3.027-3.07a10.4 10.4 0 0 0-1.184-1.338c2.324-.439 4.232-1.579 5.702-3.377a9.4 9.4 0 0 0 2.236-6.14 9.2 9.2 0 0 0-2.894-6.887 9.82 9.82 0 0 0-7.106-2.828zm11.272 0 .022.593c1.206 0 1.886.372 2.04 1.096.066.241.087.724.087 1.404v13.07c0 .987-.153 1.6-.438 1.886-.241.263-.702.438-1.36.504l-.022.57h12.084l.307-2.96h-.549c-.153.811-.504 1.381-1.096 1.71a6.7 6.7 0 0 1-3.07.505h-1.14q-1.975 0-2.303-1.448c-.044-.197-.044-.395-.044-.614l.044-13.224c0-.964.11-1.622.373-1.951.263-.307.723-.505 1.403-.549l-.044-.592zm-11.096.724a6.14 6.14 0 0 1 5.044 2.456 10.53 10.53 0 0 1 1.93 6.689c0 2.697-.658 4.846-1.952 6.47a6.36 6.36 0 0 1-5.198 2.411c-2.083 0-3.772-.833-5.044-2.5a10.33 10.33 0 0 1-1.951-6.49q0-4.113 1.973-6.58c1.294-1.645 3.027-2.456 5.198-2.456m27.829 2.807c-.285 0-.527.11-.68.307-.175.22-.22.439-.175.746.069.297.24.56.482.745.241.22.526.307.811.307s.505-.11.658-.307a.89.89 0 0 0 .154-.745 1.36 1.36 0 0 0-.439-.746 1.23 1.23 0 0 0-.811-.307m7.982 2.018c-.504 1.93-1.6 2.96-3.267 3.136l.022.548h1.951l-.043 6.535c0 1.118.043 1.864.11 2.237.218.92.789 1.381 1.775 1.381 1.448 0 2.939-.877 4.518-2.631l-.482-.395c-1.141 1.14-2.128 1.71-3.005 1.71-.548 0-.877-.306-1.009-.92l-.043-.527v-7.39h3.004l-.044-.877h-2.939V30.11zm11.491 2.456c-1.666 0-3.004.811-4.057 2.412a6.86 6.86 0 0 0-.965 5.35 4.6 4.6 0 0 0 1.47 2.676 4.17 4.17 0 0 0 2.785.943c1.031 0 2.5-.263 3.092-.811q.921-.79 1.71-2.566l-.438-.438a4.51 4.51 0 0 1-3.75 2.302c-1.754 0-2.807-.943-3.202-2.85l-.11-.768a10.1 10.1 0 0 0 4.693-1.755c1.053-.833 2.106-1.732 1.908-2.653a2.17 2.17 0 0 0-.855-1.316c-.438-.35-1.623-.526-2.281-.526m-18.201.066-3.575.833v.636l1.25-.154c.592 0 .943.264 1.053.812.044.175.066.438.087.745l-.043 5.878c0 .811-.11 1.272-.285 1.425-.176.132-.658.22-1.448.22v.547h5.68v-.548c-.811 0-1.316-.066-1.535-.197-.22-.11-.395-.329-.46-.658-.044-.263-.067-.68-.088-1.25l.022-8.29zm17.302 1.096c.351 0 .658.132 1.009.395.303.209.521.52.614.877.307 1.535-1.074 2.632-4.167 3.224a5.5 5.5 0 0 1 .593-3.092c.504-.943 1.162-1.404 1.951-1.404" fill="#003B57"/><path d="M35.487 2.193h-30.9C2.549 2.193.86 3.882.86 5.921v34.035c0 2.061 1.688 3.772 3.75 3.772h20.329c-.22-10.132 3.223-29.759 10.526-41.557z" fill="#0F80CC"/><path d="M34.368 3.29H4.588c-1.426 0-2.632 1.184-2.632 2.631V37.5c6.733-2.588 16.842-4.825 23.838-4.715A217 217 0 0 1 34.346 3.29z" fill="url(#b)"/><path d="M42.68 1.075c-2.105-1.886-4.671-1.14-7.193 1.096q-.584.524-1.119 1.097c-4.32 4.605-8.333 13.092-9.583 19.56a18 18 0 0 1 1.272 3.883l.176.767-.198-.614-.175-.439q-.65-1.354-1.404-2.653l-.767 2.412c.986 1.799 1.6 4.912 1.6 4.912l-.306-.899c-.22-.636-1.316-2.565-1.58-3.004-.438 1.645-.613 2.763-.46 3.026.307.527.592 1.426.877 2.413q.64 2.717 1.009 5.482a53 53 0 0 0 .11 5.636 20 20 0 0 0 1.03 5.439l.33-.176a24.3 24.3 0 0 1-.856-8.114c.197-4.934 1.316-10.855 3.421-17.04 3.509-9.32 8.421-16.798 12.895-20.394-4.08 3.728-9.605 15.658-11.272 20.088a80 80 0 0 0-3.947 14.035c1.36-4.167 5.789-5.965 5.789-5.965s2.15-2.676 4.693-6.491q-2.459.526-4.846 1.315l-1.558.658s3.97-2.412 7.39-3.509c4.738-7.412 9.825-17.916 4.672-22.521" fill="#003B57"/></g><defs><linearGradient id="b" x1="1872.14" y1="71.71" x2="1872.14" y2="3232.76" gradientUnits="userSpaceOnUse"><stop stop-color="#97D9F6"/><stop offset=".92" stop-color="#0F80CC"/><stop offset="1" stop-color="#0F80CC"/></linearGradient><clipPath id="a"><path fill="#fff" d="M.86 0h112.281v50H.86z"/></clipPath></defs></svg>