<svg width="50" height="50" viewBox="0 0 50 50" fill="none" xmlns="http://www.w3.org/2000/svg"><g clip-path="url(#a)"><path d="M29.074 48.798c-1.265 1.594-3.83.72-3.86-1.314l-.447-29.757h20.009c3.624 0 5.645 4.186 3.392 7.024z" fill="url(#b)"/><path d="M29.074 48.798c-1.265 1.594-3.83.72-3.86-1.314l-.447-29.757h20.009c3.624 0 5.645 4.186 3.392 7.024z" fill="url(#c)" fill-opacity=".2"/><path d="M20.937.916c1.265-1.593 3.83-.72 3.861 1.315l.195 29.757H5.235c-3.624 0-5.645-4.186-3.392-7.024z" fill="#3ECF8E"/></g><defs><linearGradient id="b" x1="24.767" y1="24.325" x2="42.55" y2="31.783" gradientUnits="userSpaceOnUse"><stop stop-color="#249361"/><stop offset="1" stop-color="#3ECF8E"/></linearGradient><linearGradient id="c" x1="16.883" y1="13.53" x2="24.993" y2="28.797" gradientUnits="userSpaceOnUse"><stop/><stop offset="1" stop-opacity="0"/></linearGradient><clipPath id="a"><path fill="#fff" d="M.885 0h48.23v50H.885z"/></clipPath></defs></svg>