<svg width="50" height="50" viewBox="0 0 50 50" fill="none" xmlns="http://www.w3.org/2000/svg"><g clip-path="url(#a)"><path d="M49.738 7.38 26.342 49.218a1.272 1.272 0 0 1-2.215.01L.267 7.385c-.534-.937.267-2.071 1.329-1.881l23.42 4.186q.226.04.453-.001l22.93-4.18c1.059-.192 1.864.933 1.339 1.872" fill="url(#b)"/><path d="M36.173.012 18.86 3.405a.636.636 0 0 0-.513.586L17.282 21.98a.634.634 0 0 0 .778.657l4.82-1.113a.636.636 0 0 1 .766.747l-1.432 7.013a.636.636 0 0 0 .808.736l2.977-.905a.636.636 0 0 1 .808.737L24.53 40.867c-.143.689.774 1.065 1.156.474l.255-.395L40.05 12.791a.636.636 0 0 0-.69-.91l-4.961.958a.636.636 0 0 1-.732-.8L36.907.812a.636.636 0 0 0-.734-.8" fill="url(#c)"/></g><defs><linearGradient id="b" x1="-41.142" y1="345.121" x2="2482.11" y2="3771.92" gradientUnits="userSpaceOnUse"><stop stop-color="#41D1FF"/><stop offset="1" stop-color="#BD34FE"/></linearGradient><linearGradient id="c" x1="1007.9" y1="93.344" x2="1526.99" y2="3654.12" gradientUnits="userSpaceOnUse"><stop stop-color="#FFEA83"/><stop offset=".083" stop-color="#FFDD35"/><stop offset="1" stop-color="#FFA800"/></linearGradient><clipPath id="a"><path fill="#fff" d="M.097 0h49.805v50H.097z"/></clipPath></defs></svg>