<svg width="36" height="50" viewBox="0 0 36 50" fill="none" xmlns="http://www.w3.org/2000/svg"><g clip-path="url(#a)"><path d="M25.38 1.25c.407.505.615 1.188 1.03 2.552l9.076 29.815a37.8 37.8 0 0 0-10.85-3.674l-5.91-19.97a.77.77 0 0 0-1.475.003l-5.838 19.957a37.8 37.8 0 0 0-10.9 3.679l9.12-29.817c.418-1.362.626-2.043 1.034-2.548.36-.445.827-.792 1.358-1.005C12.627 0 13.34 0 14.765 0h6.513c1.427 0 2.14 0 2.743.242.531.214 1 .561 1.359 1.008" fill="#fff"/><path d="M26.466 35.036c-1.496 1.279-4.483 2.151-7.922 2.151-4.222 0-7.76-1.314-8.7-3.082-.336 1.013-.41 2.173-.41 2.914 0 0-.222 3.637 2.308 6.166a2.38 2.38 0 0 1 2.378-2.378c2.251 0 2.249 1.964 2.247 3.557v.143a5.81 5.81 0 0 0 3.58 5.366 4.9 4.9 0 0 1-.49-2.138c0-2.307 1.354-3.165 2.928-4.164 1.253-.794 2.644-1.676 3.603-3.447a6.5 6.5 0 0 0 .785-3.105c0-.692-.108-1.358-.307-1.983" fill="#FF5D01"/></g><defs><clipPath id="a"><path fill="#fff" d="M.514 0h34.973v50H.514z"/></clipPath></defs></svg>