<svg width="44" height="50" viewBox="0 0 44 50" fill="none" xmlns="http://www.w3.org/2000/svg"><g clip-path="url(#a)"><path d="M4.212 44.23.269 0h43.366l-3.943 44.23-17.788 5" fill="#0C73B8"/><path d="m22 45.385 14.327-3.943 3.365-37.884H22" fill="#30A9DC"/><path d="M22 20H9.308l.48 5.48H22zm0-10.962H8.346l.481 5.385H22zm0 25.097-11.923-3.173.673 5.769L22 39.808z" fill="#ECEDEE"/><path d="M22 25.48h6.635l-.674 7.02L22 34.135v5.673l11.058-3.077 2.5-27.693H22v5.385h7.692L29.115 20H22z" fill="#fff"/></g><defs><clipPath id="a"><path fill="#fff" d="M.27 0h43.462v50H.27z"/></clipPath></defs></svg>