<svg width="34" height="50" viewBox="0 0 34 50" fill="none" xmlns="http://www.w3.org/2000/svg"><g clip-path="url(#a)"><mask id="b" style="mask-type:luminance" maskUnits="userSpaceOnUse" x="0" y="0" width="34" height="50"><path d="M33.458 0H.125v50h33.333z" fill="#fff"/></mask><g mask="url(#b)"><path d="M8.458 50c4.6 0 8.334-3.733 8.334-8.333v-8.334H8.458a8.336 8.336 0 0 0-8.333 8.334c0 4.6 3.733 8.333 8.333 8.333" fill="#0ACF83"/><path d="M.125 25c0-4.6 3.733-8.333 8.333-8.333h8.334v16.666H8.458A8.336 8.336 0 0 1 .125 25" fill="#A259FF"/><path d="M.125 8.333C.125 3.733 3.858 0 8.458 0h8.334v16.667H8.458A8.336 8.336 0 0 1 .125 8.333" fill="#F24E1E"/><path d="M16.792 0h8.333c4.6 0 8.333 3.733 8.333 8.333s-3.733 8.334-8.333 8.334h-8.333z" fill="#FF7262"/><path d="M33.458 25c0 4.6-3.733 8.333-8.333 8.333A8.336 8.336 0 0 1 16.792 25c0-4.6 3.733-8.333 8.333-8.333S33.458 20.4 33.458 25" fill="#1ABCFE"/></g></g><defs><clipPath id="a"><path fill="#fff" d="M.125 0h33.75v50H.125z"/></clipPath></defs></svg>