<svg width="44" height="50" viewBox="0 0 44 50" fill="none" xmlns="http://www.w3.org/2000/svg"><g clip-path="url(#a)"><path d="M4.212 44.23.269 0h43.366l-3.943 44.23-17.788 5" fill="#E34F26"/><path d="m22 45.385 14.327-3.943 3.365-37.884H22" fill="#EF652A"/><path d="M22 20h-7.211l-.481-5.577H22V9.038H8.346L9.79 25.481H22zm0 14.135L15.846 32.5l-.384-4.327h-5.385l.673 8.558L22 39.808z" fill="#ECEDEE"/><path d="M22 25.48h6.635l-.674 7.02L22 34.135v5.673l11.058-3.077L34.596 20H22zm0-16.442v5.385h13.077l.48-5.385z" fill="#fff"/></g><defs><clipPath id="a"><path fill="#fff" d="M.27 0h43.462v50H.27z"/></clipPath></defs></svg>