<svg width="50" height="50" viewBox="0 0 50 50" fill="none" xmlns="http://www.w3.org/2000/svg"><g clip-path="url(#a)"><path d="M0 0h50v50H0z" fill="#F0DB4F"/><path d="M45.908 38.075c-.366-2.281-1.854-4.197-6.26-5.984-1.53-.703-3.236-1.207-3.745-2.367-.18-.675-.204-1.055-.09-1.463.328-1.327 1.91-1.74 3.165-1.36.808.271 1.573.894 2.034 1.887 2.158-1.397 2.153-1.388 3.66-2.348-.551-.855-.846-1.25-1.207-1.616-1.298-1.45-3.066-2.196-5.894-2.139-.49.062-.983.129-1.473.19-1.412.357-2.757 1.098-3.546 2.092-2.367 2.685-1.692 7.386 1.188 9.32 2.838 2.13 7.006 2.614 7.538 4.606.519 2.438-1.791 3.227-4.087 2.946-1.692-.351-2.633-1.212-3.65-2.775-1.873 1.083-1.873 1.083-3.798 2.19.457.999.937 1.45 1.702 2.315 3.622 3.674 12.685 3.494 14.31-2.067.067-.19.505-1.464.153-3.427M27.182 22.98h-4.677c0 4.04-.02 8.051-.02 12.091 0 2.572.134 4.929-.284 5.651-.685 1.422-2.458 1.246-3.266.97-.822-.404-1.24-.98-1.725-1.792-.133-.233-.233-.413-.266-.428-1.27.775-2.533 1.555-3.802 2.33.632 1.297 1.563 2.423 2.756 3.155 1.783 1.07 4.178 1.398 6.683.822 1.63-.475 3.037-1.459 3.774-2.956 1.064-1.963.836-4.34.826-6.968.024-4.287 0-8.574 0-12.875" fill="#323330"/></g><defs><clipPath id="a"><path fill="#fff" d="M0 0h50v50H0z"/></clipPath></defs></svg>