<svg width="58" height="50" viewBox="0 0 58 50" fill="none" xmlns="http://www.w3.org/2000/svg"><g clip-path="url(#a)"><path d="M47.089 16.19a38 38 0 0 0-1.807-.57q.152-.625.279-1.233c1.368-6.64.473-11.99-2.581-13.752-2.929-1.688-7.719.073-12.556 4.283q-.715.623-1.398 1.282a34 34 0 0 0-.93-.859C23.026.84 17.945-1.057 14.893.709c-2.926 1.694-3.792 6.723-2.56 13.016q.183.936.414 1.86-1.08.306-2.077.654C4.726 18.31.93 21.559.93 24.927c0 3.48 4.075 6.969 10.266 9.085q.753.256 1.518.475a37 37 0 0 0-.441 2.004c-1.174 6.184-.258 11.094 2.66 12.777 3.015 1.739 8.073-.048 13-4.354q.598-.525 1.17-1.08.74.714 1.518 1.385c4.772 4.106 9.484 5.764 12.4 4.076 3.01-1.743 3.99-7.018 2.719-13.436q-.15-.755-.337-1.5.533-.157 1.044-.327c6.436-2.132 10.623-5.58 10.623-9.105 0-3.38-3.918-6.65-9.981-8.738m-1.396 15.566q-.461.153-.943.295c-.71-2.25-1.67-4.64-2.843-7.112 1.12-2.413 2.042-4.774 2.732-7.008q.863.249 1.669.526c5.195 1.789 8.364 4.433 8.364 6.47 0 2.17-3.422 4.988-8.98 6.83m-2.306 4.569c.562 2.838.642 5.403.27 7.41-.334 1.802-1.007 3.003-1.838 3.485-1.77 1.024-5.553-.307-9.634-3.819a34 34 0 0 1-1.411-1.287c1.582-1.73 3.163-3.741 4.706-5.975 2.714-.24 5.278-.635 7.603-1.172q.171.693.304 1.358M20.069 47.043c-1.728.61-3.105.628-3.937.148-1.77-1.022-2.507-4.964-1.503-10.253q.18-.937.41-1.864c2.3.51 4.845.875 7.565 1.096 1.554 2.185 3.18 4.194 4.82 5.953a30 30 0 0 1-1.07.986c-2.178 1.904-4.36 3.254-6.285 3.934m-8.097-15.3c-2.738-.936-4.999-2.152-6.548-3.479-1.393-1.192-2.096-2.376-2.096-3.337 0-2.044 3.048-4.652 8.131-6.424a35 35 0 0 1 1.933-.608c.702 2.285 1.624 4.675 2.736 7.09-1.127 2.452-2.061 4.88-2.77 7.192a30 30 0 0 1-1.386-.434m2.714-18.478c-1.055-5.392-.354-9.46 1.41-10.48 1.877-1.088 6.03.463 10.408 4.35q.428.38.842.777c-1.631 1.751-3.243 3.745-4.782 5.918-2.64.245-5.168.638-7.492 1.165a35 35 0 0 1-.386-1.73m24.217 5.98a76 76 0 0 0-1.708-2.808c1.791.226 3.508.527 5.12.894a51 51 0 0 1-1.797 4.835 84 84 0 0 0-1.615-2.922m-9.876-9.62a51 51 0 0 1 3.304 3.989 71 71 0 0 0-6.636-.001 53 53 0 0 1 3.332-3.987m-9.939 9.636q-.825 1.433-1.585 2.903a53 53 0 0 1-1.783-4.858 54 54 0 0 1 5.09-.874q-.894 1.395-1.722 2.829m1.772 14.332a51 51 0 0 1-5.173-.832 54 54 0 0 1 1.82-4.956 71 71 0 0 0 3.353 5.788m8.233 6.804a54 54 0 0 1-3.378-4.042q1.614.064 3.285.064 1.718 0 3.389-.076a51 51 0 0 1-3.296 4.054M40.54 27.718a51 51 0 0 1 1.885 4.939 51 51 0 0 1-5.236.893 84 84 0 0 0 1.723-2.857 76 76 0 0 0 1.628-2.975m-3.706 1.777a79 79 0 0 1-2.693 4.345 72 72 0 0 1-5.14.18c-1.748 0-3.447-.054-5.084-.16a68 68 0 0 1-5.139-8.876 68 68 0 0 1 2.388-4.525 67 67 0 0 1 2.722-4.334 68 68 0 0 1 10.234.002 72 72 0 0 1 2.705 4.319 79 79 0 0 1 2.42 4.504 72 72 0 0 1-2.413 4.545m4.948-26.782c1.88 1.084 2.61 5.456 1.43 11.19q-.114.549-.253 1.116c-2.329-.537-4.858-.937-7.506-1.186-1.543-2.196-3.141-4.194-4.746-5.923q.63-.608 1.292-1.184c4.144-3.607 8.018-5.03 9.783-4.013M29 19.914a5.013 5.013 0 1 1 0 10.027 5.013 5.013 0 0 1 0-10.027" fill="#00D8FF"/></g><defs><clipPath id="a"><path fill="#fff" d="M.93 0h56.14v50H.93z"/></clipPath></defs></svg>