<svg width="42" height="50" viewBox="0 0 42 50" fill="none" xmlns="http://www.w3.org/2000/svg"><g clip-path="url(#a)"><path d="M39.13 6.608C34.492-.03 25.333-1.997 18.71 2.222L7.08 9.636a13.34 13.34 0 0 0-6.028 8.937 14.05 14.05 0 0 0 1.385 9.023A13.4 13.4 0 0 0 .44 32.582a14.22 14.22 0 0 0 2.43 10.754c4.638 6.639 13.798 8.605 20.42 4.386l11.63-7.413a13.34 13.34 0 0 0 6.029-8.938 14.06 14.06 0 0 0-1.385-9.022 13.4 13.4 0 0 0 1.995-4.987A14.22 14.22 0 0 0 39.13 6.608" fill="#FF3E00"/><path d="M17.573 43.968a9.24 9.24 0 0 1-9.92-3.677 8.55 8.55 0 0 1-1.461-6.47q.1-.551.278-1.086l.22-.668.595.438a15 15 0 0 0 4.551 2.274l.433.131-.04.432a2.6 2.6 0 0 0 .47 1.73 2.78 2.78 0 0 0 2.986 1.108c.252-.067.493-.173.714-.314l11.635-7.414a2.42 2.42 0 0 0 1.093-1.62 2.6 2.6 0 0 0-.44-1.95 2.785 2.785 0 0 0-2.988-1.109 2.6 2.6 0 0 0-.713.314l-4.44 2.83a8.5 8.5 0 0 1-2.363 1.038 9.24 9.24 0 0 1-9.919-3.677 8.55 8.55 0 0 1-1.462-6.47 8.03 8.03 0 0 1 3.627-5.375l11.634-7.415a8.5 8.5 0 0 1 2.364-1.038 9.24 9.24 0 0 1 9.919 3.676 8.55 8.55 0 0 1 1.462 6.47q-.102.551-.278 1.086l-.22.668-.595-.437a15 15 0 0 0-4.552-2.275l-.432-.131.04-.432a2.6 2.6 0 0 0-.47-1.73 2.78 2.78 0 0 0-2.986-1.108 2.6 2.6 0 0 0-.715.314l-11.635 7.415a2.42 2.42 0 0 0-1.092 1.619 2.58 2.58 0 0 0 .44 1.95 2.785 2.785 0 0 0 2.987 1.109q.381-.103.715-.314l4.44-2.83a8.5 8.5 0 0 1 2.361-1.038 9.24 9.24 0 0 1 9.92 3.677 8.55 8.55 0 0 1 1.461 6.469 8.03 8.03 0 0 1-3.627 5.377l-11.633 7.414a8.5 8.5 0 0 1-2.364 1.039" fill="#fff"/></g><defs><clipPath id="a"><path fill="#fff" d="M.22 0h41.558v50H.22z"/></clipPath></defs></svg>