<svg width="84" height="50" viewBox="0 0 84 50" fill="none" xmlns="http://www.w3.org/2000/svg"><g clip-path="url(#a)"><path d="M42 0Q25.377 0 21.22 16.623q6.235-8.311 14.546-6.233c3.162.79 5.421 3.084 7.923 5.622 4.074 4.136 8.79 8.923 19.09 8.923q16.625 0 20.78-16.623-6.234 8.31-14.546 6.234c-3.161-.79-5.421-3.085-7.922-5.623C57.016 4.787 52.3 0 42 0M21.22 24.935q-16.622 0-20.778 16.623 6.233-8.311 14.545-6.233c3.161.79 5.421 3.084 7.923 5.622C26.984 45.083 31.7 49.87 42 49.87q16.623 0 20.78-16.623-6.235 8.312-14.546 6.233c-3.162-.79-5.421-3.084-7.922-5.622-4.075-4.136-8.79-8.923-19.091-8.923" fill="url(#b)"/></g><defs><linearGradient id="b" x1="-230.457" y1="1595.84" x2="6948.04" y2="5734.84" gradientUnits="userSpaceOnUse"><stop stop-color="#2298BD"/><stop offset="1" stop-color="#0ED7B5"/></linearGradient><clipPath id="a"><path fill="#fff" d="M.442 0h83.117v50H.442z"/></clipPath></defs></svg>