<svg width="30" height="30" viewBox="0 0 30 30" fill="none" xmlns="http://www.w3.org/2000/svg"><g clip-path="url(#a)"><path d="M15 0C6.717 0 0 6.716 0 15c0 6.628 4.298 12.25 10.258 14.234.75.139 1.025-.326 1.025-.722 0-.358-.014-1.54-.02-2.793-4.174.908-5.054-1.77-5.054-1.77-.682-1.733-1.666-2.194-1.666-2.194-1.36-.931.103-.912.103-.912 1.506.106 2.3 1.546 2.3 1.546 1.337 2.293 3.508 1.63 4.365 1.247.134-.97.523-1.632.952-2.006-3.332-.38-6.834-1.666-6.834-7.413 0-1.638.586-2.976 1.545-4.027-.156-.377-.669-1.903.145-3.97 0 0 1.26-.402 4.127 1.538A14.4 14.4 0 0 1 15 7.254c1.275.005 2.56.172 3.758.504 2.863-1.94 4.12-1.537 4.12-1.537.817 2.066.304 3.592.148 3.97.962 1.05 1.544 2.388 1.544 4.026 0 5.761-3.51 7.03-6.85 7.4.538.466 1.018 1.38 1.018 2.779 0 2.007-.018 3.622-.018 4.116 0 .4.27.867 1.03.72C25.708 27.246 30 21.625 30 15c0-8.284-6.716-15-15-15M5.618 21.368c-.033.075-.15.097-.257.046-.109-.05-.17-.15-.135-.226.033-.076.15-.098.259-.046.109.049.17.151.133.226m.738.658c-.072.067-.212.036-.306-.069-.099-.105-.117-.244-.044-.312.073-.066.209-.035.307.07.099.105.118.244.043.311m.506.843c-.092.064-.242.004-.335-.13-.092-.133-.092-.293.002-.357.093-.064.241-.007.335.126.092.135.092.295-.002.36m.856.975c-.082.091-.257.067-.385-.057-.132-.121-.168-.293-.086-.383.084-.091.26-.066.389.057.13.12.17.294.082.383m1.107.33c-.037.117-.206.17-.375.12-.17-.05-.281-.188-.247-.307.036-.118.205-.174.376-.12.17.05.28.187.246.307m1.259.14c.004.123-.14.226-.319.228-.179.004-.324-.096-.326-.218 0-.125.14-.227.32-.23.179-.003.325.096.325.22m1.236-.048c.022.12-.102.245-.28.278-.173.031-.334-.043-.357-.163-.021-.123.105-.247.279-.28.177-.03.336.042.358.165" fill="#fff"/></g><defs><clipPath id="a"><path fill="#fff" d="M0 0h30v29.297H0z"/></clipPath></defs></svg>