<svg width="30" height="24" viewBox="0 0 30 24" fill="none" xmlns="http://www.w3.org/2000/svg"><g clip-path="url(#a)"><path d="M2.046 23.403h4.772v-11.59L0 6.699v14.659c0 1.13.915 2.046 2.046 2.046" fill="#4285F4"/><path d="M23.182 23.403h4.773c1.13 0 2.045-.915 2.045-2.045V6.698l-6.818 5.115z" fill="#34A853"/><path d="M23.182 2.949v8.864L30 6.699V3.972C30 1.444 27.114 0 25.09 1.517z" fill="#FBBC04"/><path fill-rule="evenodd" clip-rule="evenodd" d="M6.818 11.813V2.948L15 9.085l8.182-6.136v8.864L15 17.949z" fill="#EA4335"/><path d="M0 3.972v2.727l6.818 5.114V2.948L4.91 1.517C2.886 0 0 1.444 0 3.971" fill="#C5221F"/></g><defs><clipPath id="a"><path fill="#fff" d="M0 0h30v23.404H0z"/></clipPath></defs></svg>