<svg width="30" height="31" viewBox="0 0 30 31" fill="none" xmlns="http://www.w3.org/2000/svg"><g clip-path="url(#a)"><path d="m7.93 25.995.49.245c2.043 1.226 4.332 1.799 6.621 1.799 7.194 0 13.08-5.886 13.08-13.08 0-3.433-1.39-6.784-3.843-9.237-2.452-2.452-5.722-3.842-9.237-3.842-7.193 0-13.08 5.886-12.997 13.161 0 2.452.735 4.823 1.961 6.867l.327.49-1.307 4.823z" fill="#00E676"/><path d="M25.668 4.414C22.888 1.554 19.047 0 15.123 0 6.785 0 .082 6.785.163 15.041c0 2.616.736 5.15 1.962 7.439L0 30.246l7.93-2.044C10.135 29.428 12.588 30 15.04 30 23.296 30 30 23.215 30 14.96c0-4.006-1.554-7.766-4.333-10.546M15.123 27.466c-2.207 0-4.414-.572-6.295-1.716l-.49-.245-4.741 1.226 1.226-4.66-.327-.49C.899 15.777 2.616 8.093 8.501 4.496 14.387.899 21.99 2.616 25.586 8.5c3.597 5.886 1.88 13.488-4.005 17.085-1.88 1.226-4.17 1.88-6.458 1.88m7.193-9.073-.899-.409s-1.308-.572-2.125-.98c-.082 0-.164-.083-.245-.083-.246 0-.41.082-.573.164 0 0-.081.082-1.226 1.39a.45.45 0 0 1-.409.245h-.081c-.082 0-.245-.082-.327-.164l-.409-.163c-.9-.409-1.717-.9-2.37-1.553-.164-.164-.41-.327-.573-.49-.572-.573-1.144-1.227-1.553-1.963l-.082-.163c-.081-.082-.081-.164-.163-.327 0-.164 0-.327.082-.409 0 0 .327-.409.572-.654.163-.163.245-.409.409-.572.163-.245.245-.572.163-.818-.082-.408-1.063-2.615-1.308-3.106-.163-.245-.327-.327-.572-.409h-.9c-.163 0-.326.082-.49.082l-.082.082c-.163.082-.327.245-.49.327-.164.163-.245.327-.409.49-.572.736-.899 1.635-.899 2.534 0 .654.164 1.308.409 1.88l.082.246a13.6 13.6 0 0 0 3.024 4.169l.327.327c.245.245.49.409.654.654 1.717 1.471 3.679 2.534 5.886 3.106.245.082.572.082.817.163h.818c.408 0 .899-.163 1.226-.326.245-.164.408-.164.572-.327l.163-.164c.164-.163.328-.245.49-.409.164-.163.328-.327.41-.49.163-.327.245-.736.327-1.145v-.572s-.082-.082-.246-.163" fill="#fff"/></g><defs><clipPath id="a"><path fill="#fff" d="M0 0h30v30.352H0z"/></clipPath></defs></svg>