<svg width="509" height="298" viewBox="0 0 509 298" fill="none" xmlns="http://www.w3.org/2000/svg"><path d="M315.477 295.643C426.012 280.326 508 224.11 508 157.104c0-78.79-113.36-142.662-253.198-142.662-139.837 0-253.197 63.872-253.197 142.662 0 69.174 87.38 126.849 203.341 139.896" stroke="url(#a)" stroke-width="1.709" stroke-linecap="round" style="mix-blend-mode:overlay"/><path d="M315.477 294.638C426.012 279.321 508 223.105 508 156.099c0-78.79-113.36-142.661-253.198-142.661-139.837 0-253.197 63.871-253.197 142.661 0 69.174 87.38 126.849 203.341 139.896" stroke="url(#b)" stroke-width="1.709" stroke-linecap="round" style="mix-blend-mode:overlay"/><path d="M196.339 292.426C84.688 277.557 1.605 221.039 1.605 153.587c0-78.79 113.36-142.662 253.197-142.662C394.64 10.925 508 74.797 508 153.587c0 65.902-79.311 121.368-187.087 137.749" stroke="url(#c)" stroke-width="1.709" stroke-linecap="round" style="mix-blend-mode:overlay"/><path d="M329.52 285.915C432.885 267.954 508 213.703 508 149.567c0-78.79-113.36-142.66-253.198-142.66-139.837 0-253.197 63.87-253.197 142.66 0 66.215 80.062 121.893 188.618 137.98" stroke="url(#d)" stroke-width="1.709" stroke-linecap="round" style="mix-blend-mode:overlay"/><path d="M180.937 280.536C77.132 262.726 1.605 208.353 1.605 144.041c0-78.79 113.36-142.661 253.197-142.661C394.64 1.38 508 65.25 508 144.04c0 62.199-70.646 115.101-169.194 134.622" stroke="url(#e)" stroke-width="1.709" stroke-linecap="round" style="mix-blend-mode:overlay"/><defs><radialGradient id="a" cx="0" cy="0" r="1" gradientUnits="userSpaceOnUse" gradientTransform="matrix(-269.781 0 0 -149.471 251.149 143.411)"><stop offset=".458" stop-color="#fff"/><stop offset=".718" stop-color="#fff" stop-opacity="0"/><stop offset=".782" stop-color="#fff" stop-opacity="0"/><stop offset="1" stop-color="#fff" stop-opacity=".4"/></radialGradient><radialGradient id="b" cx="0" cy="0" r="1" gradientUnits="userSpaceOnUse" gradientTransform="matrix(-269.781 0 0 -149.471 251.149 142.406)"><stop offset=".458" stop-color="#fff"/><stop offset=".718" stop-color="#fff" stop-opacity="0"/><stop offset=".782" stop-color="#fff" stop-opacity="0"/><stop offset="1" stop-color="#fff" stop-opacity=".4"/></radialGradient><radialGradient id="c" cx="0" cy="0" r="1" gradientUnits="userSpaceOnUse" gradientTransform="matrix(-269.781 0 0 -148.912 251.149 139.411)"><stop offset=".458" stop-color="#fff"/><stop offset=".718" stop-color="#fff" stop-opacity="0"/><stop offset=".782" stop-color="#fff" stop-opacity="0"/><stop offset="1" stop-color="#fff" stop-opacity=".4"/></radialGradient><radialGradient id="d" cx="0" cy="0" r="1" gradientUnits="userSpaceOnUse" gradientTransform="matrix(-269.781 0 0 -148.457 251.149 134.999)"><stop offset=".458" stop-color="#fff"/><stop offset=".718" stop-color="#fff" stop-opacity="0"/><stop offset=".782" stop-color="#fff" stop-opacity="0"/><stop offset="1" stop-color="#fff" stop-opacity=".4"/></radialGradient><radialGradient id="e" cx="0" cy="0" r="1" gradientUnits="userSpaceOnUse" gradientTransform="matrix(-269.781 0 0 -147.672 251.149 128.796)"><stop offset=".458" stop-color="#fff"/><stop offset=".718" stop-color="#fff" stop-opacity="0"/><stop offset=".782" stop-color="#fff" stop-opacity="0"/><stop offset="1" stop-color="#fff" stop-opacity=".4"/></radialGradient></defs></svg>