<svg width="128" height="125" viewBox="0 0 128 125" fill="none" xmlns="http://www.w3.org/2000/svg"><g filter="url(#a)"><path d="M66.122 28C47.342 28 32.06 43.437 32.06 62.407c0 5.58 1.288 10.973 3.682 15.623l-7.365 13.948c-1.289 2.604.92 5.394 3.683 4.65l16.018-4.835C53.233 95.14 59.493 97 65.938 97 84.718 97 100 81.563 100 62.593S84.902 28 66.122 28" fill="#000" fill-opacity=".17"/></g><path d="M105.767 32c-11.216 0-20.343 9.173-20.343 20.445 0 3.315.77 6.52 2.2 9.283l-4.399 8.288c-.77 1.547.55 3.205 2.2 2.763l9.566-2.873C98.07 71.895 101.809 73 105.657 73 116.873 73 126 63.828 126 52.555S116.983 32 105.767 32" fill="url(#b)"/><g filter="url(#c)"><path d="M80.357 16c-16.433 0-29.805 13.87-29.805 30.916 0 5.014 1.128 9.86 3.222 14.038L47.33 73.488c-1.128 2.34.806 4.846 3.222 4.178l14.016-4.345C69.08 76.329 74.557 78 80.195 78 96.629 78 110 64.13 110 47.084S96.79 16 80.357 16" fill="#fff" fill-opacity=".4"/><path d="m54.366 61.258.154-.3-.151-.302c-2.046-4.08-3.152-8.824-3.152-13.74 0-16.701 13.097-30.251 29.14-30.251 16.033 0 28.978 13.707 28.978 30.419 0 16.701-13.097 30.251-29.14 30.251-5.508 0-10.857-1.633-15.258-4.567l-.263-.176-.303.094-14.005 4.341c-1.78.485-3.347-1.348-2.44-3.243z" stroke="url(#d)" stroke-width="1.33"/></g><defs><linearGradient id="b" x1="104.5" y1="32" x2="104.5" y2="73" gradientUnits="userSpaceOnUse"><stop stop-color="#F77ED1"/><stop offset="1" stop-color="#E954E5"/></linearGradient><linearGradient id="d" x1="49.972" y1="20.593" x2="116.944" y2="37.391" gradientUnits="userSpaceOnUse"><stop stop-color="#fff" stop-opacity=".43"/><stop offset="1" stop-color="#fff" stop-opacity=".35"/></linearGradient><filter id="a" x="0" y="0" width="128" height="125" filterUnits="userSpaceOnUse" color-interpolation-filters="sRGB"><feFlood flood-opacity="0" result="BackgroundImageFix"/><feBlend in="SourceGraphic" in2="BackgroundImageFix" result="shape"/><feGaussianBlur stdDeviation="14" result="effect1_foregroundBlur_3_33"/></filter><filter id="c" x="36.37" y="5.37" width="84.26" height="83.26" filterUnits="userSpaceOnUse" color-interpolation-filters="sRGB"><feFlood flood-opacity="0" result="BackgroundImageFix"/><feGaussianBlur in="BackgroundImageFix" stdDeviation="5.315"/><feComposite in2="SourceAlpha" operator="in" result="effect1_backgroundBlur_3_33"/><feBlend in="SourceGraphic" in2="effect1_backgroundBlur_3_33" result="shape"/></filter></defs></svg>