<svg width="147" height="374" viewBox="0 0 147 374" fill="none" xmlns="http://www.w3.org/2000/svg">
<g filter="url(#filter0_bd_2_687)">
<path d="M115.5 8.22852C115.5 12.6468 119.082 16.2285 123.5 16.2285C127.918 16.2285 131.5 12.6468 131.5 8.22852C131.5 3.81024 127.918 0.228516 123.5 0.228516C119.082 0.228516 115.5 3.81024 115.5 8.22852ZM18.5 96.7285L17.5333 95.5816L15.7562 97.0794L17.853 98.0818L18.5 96.7285ZM132.5 151.229L133.602 152.246L134.981 150.752L133.147 149.875L132.5 151.229ZM7 287.229L5.89764 286.211L4.58891 287.629L6.28621 288.548L7 287.229ZM141.428 361.166C142.222 360.93 142.674 360.094 142.438 359.3L138.584 346.362C138.348 345.568 137.512 345.116 136.719 345.353C135.925 345.589 135.473 346.424 135.709 347.218L139.134 358.719L127.633 362.144C126.84 362.381 126.388 363.216 126.624 364.01C126.86 364.804 127.696 365.256 128.49 365.019L141.428 361.166ZM122.533 7.08157L17.5333 95.5816L19.4667 97.8755L124.467 9.37546L122.533 7.08157ZM17.853 98.0818L131.853 152.582L133.147 149.875L19.147 95.3752L17.853 98.0818ZM131.398 150.211L5.89764 286.211L8.10236 288.246L133.602 152.246L131.398 150.211ZM6.28621 288.548L140.286 361.048L141.714 358.409L7.71379 285.909L6.28621 288.548Z" fill="url(#paint0_linear_2_687)"/>
</g>
<defs>
<filter id="filter0_bd_2_687" x="-15.4111" y="-19.7715" width="177.911" height="404.854" filterUnits="userSpaceOnUse" color-interpolation-filters="sRGB">
<feFlood flood-opacity="0" result="BackgroundImageFix"/>
<feGaussianBlur in="BackgroundImageFix" stdDeviation="10"/>
<feComposite in2="SourceAlpha" operator="in" result="effect1_backgroundBlur_2_687"/>
<feColorMatrix in="SourceAlpha" type="matrix" values="0 0 0 0 0 0 0 0 0 0 0 0 0 0 0 0 0 0 127 0" result="hardAlpha"/>
<feOffset dy="4"/>
<feGaussianBlur stdDeviation="2"/>
<feComposite in2="hardAlpha" operator="out"/>
<feColorMatrix type="matrix" values="0 0 0 0 0 0 0 0 0 0 0 0 0 0 0 0 0 0 0.25 0"/>
<feBlend mode="normal" in2="effect1_backgroundBlur_2_687" result="effect2_dropShadow_2_687"/>
<feBlend mode="normal" in="SourceGraphic" in2="effect2_dropShadow_2_687" result="shape"/>
</filter>
<linearGradient id="paint0_linear_2_687" x1="131.5" y1="4.72852" x2="131.5" y2="316.229" gradientUnits="userSpaceOnUse">
<stop stop-color="#0CD8DF"/>
<stop offset="1" stop-color="#F44DE9"/>
</linearGradient>
</defs>
</svg>
