<svg width="24" height="24" viewBox="0 0 24 24" fill="none" xmlns="http://www.w3.org/2000/svg"><g clip-path="url(#a)"><path d="M21.6 0H2.4A2.41 2.41 0 0 0 0 2.4v19.2A2.41 2.41 0 0 0 2.4 24h19.2a2.41 2.41 0 0 0 2.4-2.4V2.4A2.41 2.41 0 0 0 21.6 0M7.045 14.465A2.11 2.11 0 0 0 9.84 13.42h1.66a3.69 3.69 0 1 1 0-1.75H9.84a2.11 2.11 0 1 0-2.795 2.795m11.345.845c-.314.27-.673.482-1.06.63a3.68 3.68 0 0 1-3.39-.38v.38h-1.51V5.37h1.5v4.11a3.74 3.74 0 0 1 1.8-.63H16a3.67 3.67 0 0 1 2.39 6.46m-.223-2.766a2.103 2.103 0 1 1-4.205.092 2.103 2.103 0 0 1 4.205-.092" fill="#282623"/></g><defs><clipPath id="a"><path fill="#fff" d="M0 0h24v24H0z"/></clipPath></defs></svg>