<svg width="24" height="24" viewBox="0 0 24 24" fill="none" xmlns="http://www.w3.org/2000/svg"><g clip-path="url(#a)"><path d="M20.448 20.452h-3.554v-5.568c0-1.329-.028-3.038-1.853-3.038-1.853 0-2.136 1.445-2.136 2.94v5.666H9.352V9h3.412v1.56h.047c.477-.9 1.637-1.848 3.37-1.848 3.601 0 4.267 2.369 4.267 5.454zM5.336 7.432A2.06 2.06 0 0 1 3.272 5.37a2.062 2.062 0 0 1 3.524-1.46 2.064 2.064 0 0 1-1.46 3.524m1.781 13.02H3.553V9h3.564zM22.227 0H1.77C.792 0 0 .774 0 1.728v20.544C0 23.226.792 24 1.771 24h20.45C23.2 24 24 23.227 24 22.272V1.728C24 .775 23.2 0 22.222 0z" fill="#282623"/></g><defs><clipPath id="a"><path fill="#fff" d="M0 0h24v24H0z"/></clipPath></defs></svg>